<svg xmlns="http://www.w3.org/2000/svg" viewBox="0 0 169.68 50.95">
  <defs>
    <style>
      .cls-1 {
        fill: #004995;
      }

      .cls-1, .cls-3 {
        fill-rule: evenodd;
      }

      .cls-2 {
        fill: none;
        stroke: #e53027;
        stroke-miterlimit: 2.61;
        stroke-width: 2.19px;
      }

      .cls-3 {
        fill: #e53027;
      }
    </style>
  </defs>
  <g id="Layer_2" data-name="Layer 2">
    <g id="Layer_1-2" data-name="Layer 1">
      <g>
        <polygon class="cls-1" points="8.22 9.92 11.46 9.92 11.46 6.42 1.07 6.42 1.07 9.92 4.31 9.92 4.31 22.31 8.22 22.31 8.22 9.92 8.22 9.92 8.22 9.92"/>
        <path class="cls-1" d="M24.67,6.42v8.37c0,2.06-.14,4.32-2.66,4.32s-2.66-2.26-2.66-4.32V6.42H15.43v8.93c0,2,.08,4.07,1.58,5.61a7,7,0,0,0,5,1.77A7,7,0,0,0,27,21c1.5-1.54,1.58-3.56,1.58-5.61V6.42Z"/>
        <path class="cls-1" d="M41.53,15.8c2.14-.4,3.29-2.3,3.29-4.49,0-3.39-2.25-4.89-5.23-4.89H33.73V22.31h3.92V16.2h0l3.7,6.11h4.87L41.53,15.8ZM37.65,9.58H38c1.28,0,2.72.26,2.72,2s-1.44,2-2.72,2h-.38v-4Z"/>
        <polygon class="cls-1" points="53.93 12.97 53.89 12.97 53.89 6.42 49.97 6.42 49.97 22.31 53.89 22.31 53.89 15.42 53.93 15.42 58.99 22.31 64.07 22.31 57.53 13.94 63.53 6.42 58.67 6.42 53.93 12.97 53.93 12.97 53.93 12.97"/>
        <polygon class="cls-1" points="71.71 6.42 67.79 6.42 67.79 22.31 71.71 22.31 71.71 6.42 71.71 6.42 71.71 6.42"/>
        <path class="cls-1" d="M86.7,7.31A9.92,9.92,0,0,0,82,6a5,5,0,0,0-5.2,5.33c0,3.08,1.62,3.75,4.08,4.49.84.25,2.38.65,2.38,1.81a1.69,1.69,0,0,1-1.9,1.6,5.28,5.28,0,0,1-3.48-1.64l-1.68,3.33a9,9,0,0,0,5.3,1.81,6.37,6.37,0,0,0,4.28-1.5A5.53,5.53,0,0,0,87.32,17c0-2.57-1.62-3.69-3.72-4.34l-1-.32c-.68-.23-1.74-.59-1.74-1.52s1-1.32,1.68-1.32a4,4,0,0,1,2.6,1l1.56-3.2Z"/>
        <polygon class="cls-1" points="95.73 12.55 95.73 6.42 91.82 6.42 91.82 22.31 95.73 22.31 95.73 15.8 101.39 15.8 101.39 22.31 105.31 22.31 105.31 6.42 101.39 6.42 101.39 12.55 95.73 12.55 95.73 12.55 95.73 12.55"/>
        <path class="cls-1" d="M10.6,42l1,2.76h4.17L10.08,28.84H5.8L0,44.73H4.16L5.2,42ZM9.54,38.81H6.28L7.9,33.75h0l1.6,5.06Z"/>
        <polygon class="cls-1" points="22.55 28.84 18.63 28.84 18.63 44.73 22.55 44.73 22.55 28.84 22.55 28.84 22.55 28.84"/>
        <path class="cls-1" d="M35,38.22c2.13-.4,3.29-2.3,3.29-4.49,0-3.39-2.25-4.89-5.23-4.89H27.24V44.73h3.92V38.62h0l3.7,6.11h4.88L35,38.22ZM31.16,32h.38c1.28,0,2.72.25,2.72,2s-1.44,2-2.72,2h-.38V32Z"/>
        <polygon class="cls-1" points="47.03 28.84 43.12 28.84 43.12 44.73 51.73 44.73 51.73 41.23 47.03 41.23 47.03 28.84 47.03 28.84 47.03 28.84"/>
        <polygon class="cls-1" points="59.18 28.84 55.26 28.84 55.26 44.73 59.18 44.73 59.18 28.84 59.18 28.84 59.18 28.84"/>
        <polygon class="cls-1" points="64.06 44.73 67.98 44.73 67.98 35 68.02 35 75.2 44.73 79.11 44.73 79.11 28.84 75.2 28.84 75.2 38.56 75.16 38.56 67.98 28.84 64.06 28.84 64.06 44.73 64.06 44.73 64.06 44.73"/>
        <polygon class="cls-1" points="92.75 32.34 92.75 28.84 84.17 28.84 84.17 44.73 92.75 44.73 92.75 41.23 88.09 41.23 88.09 38.49 92.51 38.49 92.51 35 88.09 35 88.09 32.34 92.75 32.34 92.75 32.34 92.75 32.34"/>
        <path class="cls-1" d="M107.08,29.73a9.85,9.85,0,0,0-4.71-1.31,5,5,0,0,0-5.2,5.33c0,3.08,1.62,3.76,4.08,4.49.84.25,2.38.66,2.38,1.81a1.7,1.7,0,0,1-1.9,1.61A5.25,5.25,0,0,1,98.25,40l-1.68,3.33a9,9,0,0,0,5.3,1.81,6.41,6.41,0,0,0,4.28-1.49,5.61,5.61,0,0,0,1.56-4.28c0-2.57-1.63-3.69-3.72-4.34l-1-.32c-.68-.23-1.74-.59-1.74-1.51s1-1.33,1.68-1.33a4,4,0,0,1,2.6,1.05l1.55-3.2Z"/>
        <path class="cls-2" d="M122.31,25.48c0-13.47,10.36-24.39,23.14-24.39S168.58,12,168.58,25.48s-10.35,24.38-23.13,24.38-23.14-10.92-23.14-24.38Z"/>
        <path class="cls-3" d="M152.43,20.13c-1.06-7.56-7.29-11.29-11.18-13.52-3.61-2.07-6.85-3-6.92-2.77a18.77,18.77,0,0,1,6.74,14.55C141.07,28.08,134,36,125,36.77l.57.9C137.07,35.83,168,30,168,30l.08-.69-18.74-.66c2.07-2.23,3.48-6,3.13-8.49Z"/>
      </g>
    </g>
  </g>
</svg>
